<svg width="130" height="36" viewBox="0 0 130 36" fill="none" xmlns="http://www.w3.org/2000/svg">
<path fill-rule="evenodd" clip-rule="evenodd" d="M15.4907 5.77759C16.0566 4.81484 16.5782 3.92238 16.9099 3.04679C17.0059 2.79329 17.0184 2.6539 17.013 2.58636C16.9353 2.56562 16.7197 2.53215 16.296 2.66244C15.1895 3.00266 13.4914 4.26354 12.3065 6.77656C12.1836 7.03733 12.0819 7.28468 11.9989 7.51897C11.8428 7.95976 11.4002 8.23022 10.9385 8.1669C10.4767 8.10359 10.1225 7.72387 10.0899 7.25721C10.0506 6.69402 10.0355 6.11139 10.0209 5.54842L10.0206 5.53714C9.99205 4.43554 9.96321 3.40967 9.79069 2.48501C9.73698 2.19712 9.66903 2.05779 9.6255 1.99478C9.55629 2.02271 9.41616 2.10177 9.21454 2.33162C8.53323 3.1083 7.80008 4.97894 8.10937 7.74456C8.1523 8.12841 8.2138 8.47423 8.28962 8.78545C8.40303 9.25098 8.16724 9.73107 7.73032 9.92423C4.08636 11.5352 1.96825 14.7804 1.96825 18.6637C1.96825 22.1521 3.93873 25.3576 7.19299 27.2474C7.58913 27.4775 7.77502 27.9513 7.64153 28.3907L6.04013 33.6624C5.98311 33.8501 6.12389 34.0242 6.29717 34.0242H12.0483L12.013 33.8103C11.9608 33.4937 11.7261 33.2453 11.4249 33.1751L10.3956 32.9352C9.94971 32.8312 9.63409 32.4324 9.63409 31.9729V29.615C9.63409 29.3158 9.76918 29.0327 10.0014 28.8452C10.2337 28.6577 10.5381 28.5859 10.8292 28.6501C11.8004 28.8641 12.832 28.9792 13.9135 28.9792C14.7319 28.9792 15.5148 28.9457 16.2602 28.8788C16.5239 28.8552 16.7859 28.9391 16.9872 29.1118C17.1884 29.2844 17.3119 29.5312 17.3297 29.7963L17.5793 33.5095C17.5895 33.6608 17.7118 33.7687 17.8481 33.7687H23.1254L23.0244 33.3331C22.9725 33.1094 22.7879 32.9494 22.5709 32.9268L20.7956 32.7422C20.373 32.6982 20.0262 32.387 19.9355 31.9703L19.3572 29.3122C19.2487 28.8134 19.5367 28.3138 20.0215 28.1596C21.9916 27.5331 23.4781 26.5619 24.4743 25.2738C25.4658 23.9919 26.0317 22.3188 26.0317 20.174C26.0317 16.3926 23.6998 12.4808 19.724 10.3815C19.3612 10.1899 19.1547 9.79265 19.2057 9.38434C19.2567 8.97602 19.5544 8.64219 19.9531 8.54642C20.3506 8.45095 20.7577 8.36351 21.1545 8.27832L21.1603 8.27706C22.213 8.05103 23.1869 7.83939 24.0323 7.50456C24.2742 7.40875 24.3871 7.32607 24.4372 7.276C24.398 7.20971 24.2902 7.06977 23.9979 6.89369C23.0989 6.35215 21.1506 5.96521 18.5777 6.76294C17.6314 7.05633 16.9737 7.42874 16.5195 7.81246C16.1543 8.12101 15.6212 8.122 15.2549 7.81479C14.8885 7.50759 14.7946 6.98078 15.0321 6.56513C15.1821 6.3026 15.337 6.03909 15.4892 5.78023L15.4907 5.77759ZM24.4735 7.22509C24.4735 7.22509 24.4728 7.23204 24.4647 7.24393C24.4682 7.23069 24.4735 7.22509 24.4735 7.22509ZM9.5819 1.94816C9.5819 1.94816 9.58654 1.94982 9.59392 1.9567C9.58527 1.9522 9.5819 1.94816 9.5819 1.94816ZM16.9981 2.53315C16.9981 2.53315 17.0048 2.53922 17.0088 2.5574C16.9986 2.54324 16.9981 2.53315 16.9981 2.53315Z" fill="white"/>
<path d="M12.6076 11.9003C12.192 11.9003 11.8311 12.1779 11.5791 12.5937C11.3261 13.0112 11.1727 13.5818 11.1727 14.207C11.1727 14.8322 11.3261 15.4028 11.5791 15.8203C11.8311 16.2361 12.192 16.5136 12.6076 16.5136C13.0232 16.5136 13.3841 16.2361 13.6361 15.8203C13.8891 15.4028 14.0425 14.8322 14.0425 14.207C14.0425 13.5818 13.8891 13.0112 13.6361 12.5937C13.3841 12.1779 13.0232 11.9003 12.6076 11.9003Z" fill="#0C131D"/>
<path d="M16.3491 11.9785C16.013 11.9785 15.7345 12.2511 15.5456 12.6328C15.3538 13.0202 15.238 13.5486 15.238 14.1271C15.238 14.7055 15.3538 15.234 15.5456 15.6214C15.7345 16.003 16.013 16.2757 16.3491 16.2757C16.6851 16.2757 16.9636 16.003 17.1525 15.6214C17.3443 15.234 17.4601 14.7055 17.4601 14.1271C17.4601 13.5486 17.3443 13.0202 17.1525 12.6328C16.9636 12.2511 16.6851 11.9785 16.3491 11.9785Z" fill="#0C131D"/>
<path d="M16.8911 17.0305C16.9617 16.4745 17.4659 16.0792 18.0196 16.1509C18.993 16.2771 20.1799 16.7074 21.2102 17.3365C22.2209 17.9537 23.2533 18.8684 23.6764 20.0635C23.8546 20.5667 23.6161 21.1249 23.128 21.3384L23.1245 21.34L23.0276 21.3805C22.9688 21.4044 22.8853 21.4375 22.7795 21.4771C22.5682 21.5562 22.2667 21.6618 21.8942 21.7728C21.1519 21.9938 20.1126 22.2407 18.9324 22.3373C16.5866 22.5294 13.5264 22.1331 11.2451 19.5582C10.8749 19.1404 10.9096 18.4984 11.324 18.1237C11.7393 17.7481 12.3773 17.7843 12.7482 18.203C14.4384 20.1106 16.7437 20.4766 18.77 20.3107C19.7047 20.2341 20.5469 20.0454 21.1823 19.864C20.9122 19.5895 20.5685 19.3219 20.166 19.076C19.3402 18.5718 18.4183 18.2527 17.7621 18.1677C17.209 18.096 16.8206 17.5859 16.8911 17.0305Z" fill="#0C131D"/>
<path fill-rule="evenodd" clip-rule="evenodd" d="M11.7253 2.12129C11.5501 1.18215 11.0564 0.254512 10.054 0.0411275C9.11457 -0.158866 8.28382 0.402916 7.73735 1.02589C6.58739 2.33685 5.80177 4.82066 6.15341 7.96498C6.17232 8.13407 6.19445 8.29893 6.21969 8.45965C2.31064 10.4826 0 14.2439 0 18.6637C0 22.6796 2.13453 26.2947 5.53767 28.5426L4.15747 33.0861C3.71985 34.5267 4.78447 36 6.29717 36H13.2089C13.498 36 13.7724 35.8724 13.9594 35.651C14.1464 35.4297 14.227 35.137 14.1798 34.8507L13.9548 33.4874C13.7735 32.3884 12.9531 31.503 11.8701 31.2505L11.6023 31.1881V30.7951C12.3503 30.9003 13.1219 30.955 13.9135 30.955C14.4305 30.955 14.937 30.9424 15.4323 30.9171L15.6155 33.6425C15.6947 34.8204 16.6656 35.7445 17.8481 35.7445H24.3651C24.6653 35.7445 24.9492 35.6069 25.1359 35.3708C25.3226 35.1347 25.3917 34.826 25.3236 34.5325L24.9413 32.885C24.7005 31.847 23.8328 31.0717 22.7738 30.9615L21.7065 30.8506L21.4659 29.7442C23.3404 29.0181 24.8996 27.9458 26.0291 26.4854C27.33 24.8034 28 22.6846 28 20.174C28 16.3335 26.0337 12.5122 22.7068 9.95758C23.3952 9.7951 24.0987 9.60229 24.7547 9.34246C25.6389 8.99226 26.4368 8.31727 26.427 7.28058C26.418 6.33558 25.7217 5.62781 25.0106 5.1995C23.5637 4.32793 21.1267 3.9811 18.2936 4.78691C18.462 4.44535 18.6173 4.09834 18.7496 3.74907C19.0997 2.8251 19.1206 1.74754 18.2915 1.06517C17.5603 0.46333 16.5472 0.5188 15.7196 0.773284C14.4936 1.15024 13.1045 2.11065 11.9125 3.65188C11.8755 3.13752 11.8186 2.62111 11.7253 2.12129ZM16.9099 3.04679C16.5782 3.92238 16.0567 4.81484 15.4907 5.77759L15.4892 5.78023C15.337 6.03909 15.1821 6.30261 15.0321 6.56513C14.7946 6.98078 14.8885 7.50759 15.2549 7.81479C15.6212 8.122 16.1543 8.12101 16.5195 7.81246C16.9737 7.42874 17.6314 7.05633 18.5777 6.76294C21.1506 5.96521 23.0989 6.35215 23.9979 6.89369C24.2902 7.06977 24.398 7.20971 24.4372 7.276C24.3871 7.32607 24.2742 7.40875 24.0323 7.50456C23.1869 7.83939 22.213 8.05103 21.1603 8.27706L21.1545 8.27832C20.7577 8.36351 20.3506 8.45095 19.9531 8.54642C19.5544 8.64219 19.2567 8.97602 19.2057 9.38434C19.1547 9.79265 19.3612 10.1899 19.724 10.3815C23.6998 12.4808 26.0317 16.3926 26.0317 20.174C26.0317 22.3188 25.4658 23.9919 24.4743 25.2738C23.4781 26.5619 21.9916 27.5331 20.0215 28.1596C19.5367 28.3138 19.2487 28.8134 19.3572 29.3122L19.9355 31.9703C20.0262 32.387 20.373 32.6982 20.7956 32.7422L22.5709 32.9268C22.7879 32.9494 22.9725 33.1094 23.0244 33.3331L23.1254 33.7687H17.8481C17.7118 33.7687 17.5895 33.6608 17.5793 33.5095L17.3297 29.7963C17.3119 29.5311 17.1884 29.2844 16.9872 29.1118C16.786 28.9391 16.5239 28.8552 16.2603 28.8788C15.5148 28.9457 14.7319 28.9792 13.9135 28.9792C12.8321 28.9792 11.8004 28.8641 10.8292 28.6501C10.5381 28.5859 10.2337 28.6577 10.0014 28.8452C9.76918 29.0327 9.63409 29.3158 9.63409 29.615V31.9729C9.63409 32.4324 9.94971 32.8312 10.3956 32.9352L11.4249 33.1751C11.7261 33.2453 11.9608 33.4937 12.013 33.8103L12.0483 34.0242H6.29717C6.12389 34.0242 5.98312 33.8501 6.04013 33.6624L7.64153 28.3907C7.77502 27.9513 7.58913 27.4775 7.193 27.2474C3.93873 25.3576 1.96825 22.1521 1.96825 18.6637C1.96825 14.7804 4.08636 11.5352 7.73033 9.92423C8.16724 9.73107 8.40304 9.25098 8.28962 8.78545C8.2138 8.47423 8.1523 8.12841 8.10938 7.74456C7.80008 4.97894 8.53323 3.1083 9.21454 2.33162C9.41616 2.10177 9.55629 2.02271 9.62551 1.99478C9.66903 2.05779 9.73698 2.19712 9.79069 2.48501C9.96321 3.40967 9.99206 4.43554 10.0206 5.53714L10.0209 5.54842C10.0355 6.11139 10.0506 6.69402 10.0899 7.25721C10.1225 7.72387 10.4767 8.10359 10.9385 8.1669C11.4002 8.23022 11.8429 7.95976 11.9989 7.51897C12.0819 7.28468 12.1836 7.03733 12.3065 6.77656C13.4914 4.26354 15.1895 3.00266 16.296 2.66244C16.7197 2.53215 16.9353 2.56562 17.013 2.58636C17.0184 2.6539 17.0059 2.79329 16.9099 3.04679ZM24.4735 7.22509C24.4735 7.22509 24.4728 7.23204 24.4647 7.24393C24.4682 7.23069 24.4735 7.22509 24.4735 7.22509ZM9.5819 1.94816C9.5819 1.94816 9.58654 1.94982 9.59392 1.9567C9.58527 1.9522 9.5819 1.94816 9.5819 1.94816ZM16.9981 2.53315C16.9981 2.53315 17.0048 2.53922 17.0089 2.5574C16.9986 2.54324 16.9981 2.53315 16.9981 2.53315Z" fill="#0C131D"/>
<path d="M48.24 23.6977L45.7428 13H42.5233L40.0881 23.7182L37.7767 13H34L37.9212 26.5778H41.9042L43.4933 19.9946L44.0918 16.6825H44.1331L44.7522 19.9946L46.3619 26.5778H50.2212L54.163 13H50.5101L48.24 23.6977Z" fill="#0C131D"/>
<path d="M65.37 24.4794C65.2191 24.5347 65.0192 24.5617 64.7716 24.5617C64.2904 24.5617 64.0492 24.2943 64.0492 23.7594V19.9946C64.0492 19.1447 63.857 18.4311 63.4714 17.8551C63.0999 17.2649 62.5569 16.8265 61.841 16.5385C61.1393 16.2363 60.2867 16.0859 59.2819 16.0859C57.7818 16.0859 56.6197 16.3803 55.7942 16.9705C54.9687 17.5607 54.4592 18.3488 54.267 19.3363L57.2388 20.0358C57.3626 19.4598 57.5832 19.0625 57.8992 18.8426C58.2294 18.6099 58.6215 18.4929 59.0756 18.4929C59.5296 18.4929 59.8869 18.6369 60.1487 18.9249C60.4235 19.1987 60.5615 19.5768 60.5615 20.0564V20.3508L56.9912 21.085C56.0276 21.2766 55.3195 21.6199 54.8655 22.1136C54.4256 22.5932 54.2051 23.2039 54.2051 23.9446C54.2051 24.5617 54.3431 25.0825 54.6178 25.5081C54.9068 25.9195 55.3131 26.2345 55.8355 26.4544C56.3578 26.6743 56.9705 26.7836 57.6722 26.7836C58.2771 26.7836 58.855 26.6871 59.4058 26.4955C59.9694 26.304 60.4235 26.0082 60.7678 25.6109C60.871 25.4952 60.9587 25.3705 61.0323 25.2393C61.089 25.4193 61.1651 25.5852 61.2632 25.7344C61.4966 26.0777 61.8204 26.3374 62.2331 26.5161C62.6459 26.6807 63.1205 26.763 63.6571 26.763C64.2492 26.763 64.7509 26.6665 65.1637 26.475L65.37 24.4794ZM60.417 23.5537C60.3203 23.7735 60.19 23.9587 60.0249 24.1091C59.8598 24.2467 59.6676 24.3496 59.447 24.4177C59.2407 24.4859 59.0201 24.5206 58.7866 24.5206C58.4835 24.5206 58.223 24.4447 58.0024 24.2943C57.7818 24.1438 57.6722 23.9176 57.6722 23.6154C57.6722 23.3004 57.7689 23.0664 57.9611 22.9159C58.1675 22.7514 58.4771 22.6279 58.8898 22.5456L60.5615 22.1985V22.7719C60.5615 23.0741 60.5125 23.3338 60.417 23.5537Z" fill="#0C131D"/>
<path d="M72.9833 16.2907L71.3942 22.0716L70.8164 24.3345L70.3211 22.1539L68.732 16.2907H64.8727L67.9684 24.0054L69.1653 26.8032L68.8971 27.441C68.7461 27.8254 68.5398 28.0852 68.2779 28.2227C68.0303 28.3603 67.7065 28.4285 67.308 28.4285C66.881 28.4285 66.5302 28.3873 66.2554 28.305C65.9807 28.2369 65.7189 28.1134 65.4712 27.9347L64.7695 30.3005C65.1268 30.5204 65.5473 30.6914 66.0284 30.8149C66.5095 30.9383 67.0397 31 67.6175 31C68.4843 31 69.2273 30.856 69.8464 30.568C70.4655 30.28 71.0021 29.8132 71.4561 29.1691C71.9102 28.5249 72.3294 27.6608 72.715 26.5769L76.4711 16.2907H72.9833Z" fill="#0C131D"/>
<path d="M80.3016 13L75.5137 26.5778H79.084L80.054 23.5125H84.7181L85.6674 26.5778H89.3203L84.553 13H80.3016ZM80.7144 21.1055L82.386 15.6127L84.0577 21.1055H80.7144Z" fill="#0C131D"/>
<path d="M101.636 23.8819L99.6341 16.2907H96.167L94.1445 23.8819L92.4109 16.2907H88.7168L91.8537 26.5769H96.0432L97.8593 20.2612L99.7373 26.5769H103.947L107.064 16.2907H103.39L101.636 23.8819Z" fill="#0C131D"/>
<path d="M118.901 24.4794C118.75 24.5347 118.55 24.5617 118.303 24.5617C117.822 24.5617 117.58 24.2943 117.58 23.7594V19.9946C117.58 19.1447 117.388 18.4311 117.003 17.8551C116.631 17.2649 116.088 16.8265 115.372 16.5385C114.671 16.2363 113.818 16.0859 112.813 16.0859C111.313 16.0859 110.151 16.3803 109.325 16.9705C108.5 17.5607 107.99 18.3488 107.798 19.3363L110.77 20.0358C110.894 19.4598 111.114 19.0625 111.43 18.8426C111.761 18.6099 112.153 18.4929 112.607 18.4929C113.061 18.4929 113.418 18.6369 113.68 18.9249C113.955 19.1987 114.093 19.5768 114.093 20.0564V20.3508L110.522 21.085C109.559 21.2766 108.851 21.6199 108.397 22.1136C107.957 22.5932 107.736 23.2039 107.736 23.9446C107.736 24.5617 107.874 25.0825 108.149 25.5081C108.438 25.9195 108.844 26.2345 109.367 26.4544C109.889 26.6743 110.502 26.7836 111.203 26.7836C111.808 26.7836 112.386 26.6871 112.937 26.4955C113.501 26.304 113.955 26.0082 114.299 25.6109C114.402 25.4952 114.49 25.3705 114.564 25.2393C114.62 25.4193 114.696 25.5852 114.794 25.7344C115.028 26.0777 115.352 26.3374 115.764 26.5161C116.177 26.6807 116.652 26.763 117.188 26.763C117.78 26.763 118.282 26.6665 118.695 26.475L118.901 24.4794ZM113.948 23.5537C113.852 23.7735 113.721 23.9587 113.556 24.1091C113.391 24.2467 113.199 24.3496 112.978 24.4177C112.772 24.4859 112.551 24.5206 112.318 24.5206C112.015 24.5206 111.754 24.4447 111.534 24.2943C111.313 24.1438 111.203 23.9176 111.203 23.6154C111.203 23.3004 111.3 23.0664 111.492 22.9159C111.699 22.7514 112.008 22.6279 112.421 22.5456L114.093 22.1985V22.7719C114.093 23.0741 114.044 23.3338 113.948 23.5537Z" fill="#0C131D"/>
<path d="M126.513 16.2907L124.924 22.0716L124.346 24.3345L123.85 22.1539L122.261 16.2907H118.402L121.498 24.0054L122.695 26.8032L122.426 27.441C122.275 27.8254 122.069 28.0852 121.807 28.2227C121.56 28.3603 121.236 28.4285 120.837 28.4285C120.41 28.4285 120.059 28.3873 119.785 28.305C119.51 28.2369 119.248 28.1134 119.001 27.9347L118.299 30.3005C118.656 30.5204 119.077 30.6914 119.558 30.8149C120.039 30.9383 120.569 31 121.147 31C122.014 31 122.757 30.856 123.376 30.568C123.995 30.28 124.531 29.8132 124.985 29.1691C125.439 28.5249 125.859 27.6608 126.244 26.5769L130 16.2907H126.513Z" fill="#0C131D"/>
</svg>
